<svg width="150" height="24" viewBox="0 0 150 24" fill="none" xmlns="http://www.w3.org/2000/svg">
            <path
              d="M17.5262 3.67477C16.7777 3.67477 15.9669 3.60271 15.0937 3.45861C14.2413 3.3145 13.3473 3.13951 12.4118 2.93364V23.1294H9.04375V2.43955C8.81506 2.39838 8.59676 2.37779 8.38885 2.37779C8.20174 2.37779 8.00424 2.37779 7.79633 2.37779C6.04995 2.37779 4.70899 2.69689 3.77343 3.33508C2.85866 3.95269 2.40127 5.08498 2.40127 6.73193C2.40127 7.96715 2.53641 8.91415 2.80668 9.57293C3.09774 10.2111 3.38881 10.6949 3.67987 11.0243C3.16011 11.0243 2.67154 10.9523 2.21416 10.8081C1.77756 10.6435 1.39294 10.3861 1.0603 10.0361C0.727658 9.68616 0.46778 9.23325 0.280668 8.6774C0.093556 8.10096 0 7.39071 0 6.54665C0 5.70258 0.166322 4.8894 0.498965 4.10709C0.831609 3.32479 1.36176 2.63513 2.08942 2.03811C2.83787 1.4205 3.79422 0.926412 4.95847 0.555848C6.14351 0.185283 7.58843 0 9.29323 0C10.1248 0 10.8733 0.0411734 11.5386 0.12352C12.2247 0.185281 12.8588 0.267629 13.4409 0.370564C14.0438 0.452912 14.6363 0.53526 15.2184 0.617608C15.8006 0.679369 16.4139 0.71025 17.0584 0.71025C17.9316 0.71025 18.6592 0.648488 19.2414 0.524966C19.8443 0.380858 20.3432 0.226456 20.7383 0.06176C20.8006 0.432325 20.8318 0.782303 20.8318 1.11169C20.8318 2.82041 19.7299 3.67477 17.5262 3.67477Z"
              fill="black" />
            <path
              d="M27.9109 7.68923V18.1886C27.9109 18.3944 27.9213 18.6518 27.9421 18.9606C27.9629 19.2694 28.0148 19.5782 28.098 19.887C28.2019 20.1752 28.3475 20.4325 28.5346 20.659C28.7217 20.8649 28.9816 20.9678 29.3142 20.9678C30.3329 20.9678 31.0814 19.8458 31.5596 17.6018H32.7134C32.4847 18.8988 32.1937 19.9282 31.8402 20.6899C31.4868 21.431 31.1126 21.9972 30.7176 22.3883C30.3225 22.7795 29.9171 23.0265 29.5013 23.1294C29.0855 23.253 28.7113 23.3147 28.3787 23.3147C27.9005 23.3147 27.4847 23.2324 27.1312 23.0677C26.7986 22.903 26.5075 22.6868 26.2581 22.4192C26.0294 22.1516 25.8422 21.8428 25.6967 21.4928C25.5512 21.1428 25.4368 20.7722 25.3537 20.3811C25.0418 21.184 24.5325 21.8736 23.8256 22.4501C23.1395 23.0265 22.2975 23.3147 21.2996 23.3147C20.6759 23.3147 20.0418 23.1912 19.3973 22.9442C18.7736 22.6971 18.2018 22.2957 17.6821 21.7398C17.1831 21.1634 16.7673 20.4325 16.4347 19.5473C16.1228 18.6415 15.9669 17.5401 15.9669 16.2431C15.9669 15.2961 16.0708 14.3079 16.2787 13.2786C16.5074 12.2492 16.8609 11.3125 17.339 10.4685C17.8172 9.6244 18.4305 8.92444 19.179 8.36859C19.9274 7.81275 20.8318 7.53482 21.8921 7.53482C22.1416 7.53482 22.4015 7.5657 22.6717 7.62746C22.9628 7.66864 23.2331 7.75099 23.4826 7.87451C23.7528 7.99803 24.0023 8.17302 24.231 8.39947C24.4597 8.60534 24.6468 8.86268 24.7923 9.17148V7.68923H27.9109ZM22.0792 20.9678C22.3911 20.9678 22.7029 20.8855 23.0148 20.7208C23.3474 20.5355 23.6385 20.2987 23.888 20.0105C24.1582 19.7017 24.3765 19.3414 24.5429 18.9297C24.7092 18.518 24.7923 18.0753 24.7923 17.6018V10.5611C24.6468 10.2317 24.4181 9.9332 24.1063 9.66557C23.8152 9.37735 23.4306 9.23325 22.9524 9.23325C22.2871 9.23325 21.7154 9.4597 21.2372 9.91261C20.759 10.3449 20.3744 10.9008 20.0834 11.5802C19.7923 12.2389 19.574 12.9698 19.4285 13.7727C19.3037 14.555 19.2414 15.3064 19.2414 16.0269C19.2414 17.7974 19.4804 19.0635 19.9586 19.8252C20.4576 20.5869 21.1644 20.9678 22.0792 20.9678Z"
              fill="black" />
            <path
              d="M43.0467 1.51314V18.1886C43.0467 18.3944 43.0571 18.6518 43.0779 18.9606C43.0987 19.2694 43.1507 19.5782 43.2338 19.887C43.3378 20.1752 43.4833 20.4325 43.6704 20.659C43.8575 20.8649 44.1174 20.9678 44.4501 20.9678C45.4688 20.9678 46.2172 19.8458 46.6954 17.6018H47.8493C47.6206 18.8988 47.3295 19.9282 46.9761 20.6899C46.6226 21.431 46.2484 21.9972 45.8534 22.3883C45.4584 22.7795 45.053 23.0265 44.6372 23.1294C44.2214 23.253 43.8471 23.3147 43.5145 23.3147C43.0363 23.3147 42.6205 23.2324 42.2671 23.0677C41.9344 22.903 41.6434 22.6868 41.3939 22.4192C41.1652 22.1516 40.9781 21.8428 40.8326 21.4928C40.687 21.1428 40.5727 20.7722 40.4895 20.3811C40.1777 21.184 39.6683 21.8736 38.9614 22.4501C38.2754 23.0265 37.4334 23.3147 36.4354 23.3147C35.8117 23.3147 35.1776 23.1912 34.5331 22.9442C33.9094 22.6971 33.3377 22.2957 32.8179 21.7398C32.319 21.1634 31.9032 20.4325 31.5705 19.5473C31.2587 18.6415 31.1027 17.5401 31.1027 16.2431C31.1027 15.2961 31.2067 14.3079 31.4146 13.2786C31.6433 12.2492 31.9967 11.3125 32.4749 10.4685C32.9531 9.6244 33.5664 8.92444 34.3148 8.36859C35.0633 7.81275 35.9677 7.53482 37.028 7.53482C37.2774 7.53482 37.5373 7.5657 37.8076 7.62746C38.0987 7.66864 38.3689 7.75099 38.6184 7.87451C38.8887 7.99803 39.1382 8.17302 39.3669 8.39947C39.5956 8.60534 39.7827 8.86268 39.9282 9.17148V1.94547L43.0467 1.51314ZM37.2151 20.9678C37.5269 20.9678 37.8388 20.8855 38.1506 20.7208C38.4833 20.5355 38.7743 20.2987 39.0238 20.0105C39.2941 19.7017 39.5124 19.3414 39.6787 18.9297C39.845 18.518 39.9282 18.0753 39.9282 17.6018V10.5611C39.7827 10.2317 39.554 9.9332 39.2421 9.66557C38.9511 9.37735 38.5664 9.23325 38.0883 9.23325C37.423 9.23325 36.8512 9.4597 36.3731 9.91261C35.8949 10.3449 35.5103 10.9008 35.2192 11.5802C34.9281 12.2389 34.7098 12.9698 34.5643 13.7727C34.4396 14.555 34.3772 15.3064 34.3772 16.0269C34.3772 17.7974 34.6163 19.0635 35.0945 19.8252C35.5934 20.5869 36.3003 20.9678 37.2151 20.9678Z"
              fill="black" />
            <path
              d="M56.4362 11.5493C56.4362 12.9904 55.8333 14.1947 54.6275 15.1623C53.4424 16.1299 51.7896 16.7269 49.669 16.9534C49.7521 17.7768 49.8977 18.4459 50.1056 18.9606C50.3343 19.4753 50.6045 19.887 50.9164 20.1958C51.2282 20.484 51.5817 20.6899 51.9767 20.8134C52.3925 20.9163 52.8187 20.9678 53.2553 20.9678C54.2532 20.9678 55.1888 20.7105 56.062 20.1958C56.9352 19.6811 57.642 18.8165 58.1826 17.6018H59.1805C58.9102 18.3636 58.536 19.0944 58.0578 19.7943C57.5797 20.4737 57.0183 21.081 56.3738 21.6163C55.7293 22.131 55.0329 22.5427 54.2844 22.8515C53.536 23.1603 52.7667 23.3147 51.9767 23.3147C51.249 23.3147 50.5422 23.1912 49.8561 22.9442C49.1908 22.6971 48.5983 22.2957 48.0785 21.7398C47.5588 21.1634 47.1326 20.4223 46.7999 19.5164C46.4881 18.6106 46.3321 17.4989 46.3321 16.1813C46.3321 15.3167 46.4257 14.38 46.6128 13.3712C46.8207 12.3625 47.1534 11.4258 47.6108 10.5611C48.0889 9.69645 48.7022 8.97591 49.4507 8.39947C50.2199 7.82304 51.1659 7.53482 52.2886 7.53482C52.8083 7.53482 53.3073 7.59658 53.7854 7.72011C54.2844 7.82304 54.7314 8.02891 55.1264 8.33771C55.5214 8.62593 55.8333 9.02738 56.062 9.54205C56.3115 10.0567 56.4362 10.7258 56.4362 11.5493ZM49.6378 15.749C51.1139 15.5226 52.2782 15.0079 53.1306 14.205C54.0037 13.4021 54.4403 12.4139 54.4403 11.2405C54.4403 10.4582 54.3052 9.90232 54.0349 9.57293C53.7647 9.22295 53.38 9.04796 52.8811 9.04796C52.3405 9.04796 51.8623 9.25383 51.4465 9.66557C51.0515 10.0773 50.7189 10.6126 50.4486 11.2714C50.1783 11.9095 49.9704 12.6301 49.8249 13.433C49.7002 14.2153 49.6378 14.9873 49.6378 15.749Z"
              fill="black" />
            <path
              d="M68.6971 7.68923V18.1886C68.6971 18.4356 68.7075 18.7238 68.7283 19.0532C68.7491 19.362 68.8011 19.6605 68.8843 19.9488C68.9882 20.237 69.1337 20.484 69.3209 20.6899C69.5288 20.8752 69.8198 20.9678 70.194 20.9678C70.3604 20.9678 70.5371 20.9472 70.7242 20.906C70.9321 20.8649 71.0984 20.8237 71.2232 20.7825C71.244 20.8855 71.2544 20.9781 71.2544 21.0604C71.2751 21.1428 71.2855 21.2354 71.2855 21.3384C71.2855 21.956 71.0464 22.4398 70.5683 22.7898C70.0901 23.1397 69.5495 23.3147 68.9466 23.3147C68.3021 23.3147 67.72 23.0986 67.2003 22.6662C66.6805 22.2133 66.3271 21.4619 66.14 20.412C65.7449 21.4207 65.2252 22.1619 64.5807 22.6353C63.9362 23.0883 63.2605 23.3147 62.5536 23.3147C61.9507 23.3147 61.379 23.2324 60.8384 23.0677C60.2979 22.903 59.8301 22.6353 59.4351 22.2648C59.0401 21.8736 58.7282 21.3795 58.4995 20.7825C58.2709 20.1649 58.1565 19.4135 58.1565 18.5283V7.68923H61.275V18.1886C61.275 19.1973 61.4518 19.9179 61.8052 20.3502C62.1586 20.7619 62.6056 20.9678 63.1462 20.9678C63.4372 20.9678 63.7283 20.8958 64.0193 20.7516C64.3104 20.5869 64.5703 20.3605 64.799 20.0723C65.0277 19.7841 65.2148 19.4341 65.3603 19.0223C65.5059 18.6106 65.5786 18.1371 65.5786 17.6018V7.68923H68.6971Z"
              fill="black" />
            <path
              d="M85.0312 4.23062C85.0312 5.0541 84.8545 5.69229 84.501 6.1452C84.1684 6.59812 83.7214 6.82457 83.1601 6.82457C82.869 6.82457 82.6195 6.77311 82.4116 6.67017C82.2245 6.56724 82.027 6.40254 81.8191 6.17608C82.1102 5.97021 82.3285 5.6717 82.474 5.28055C82.6403 4.8894 82.7235 4.47766 82.7235 4.04533C82.7235 3.69536 82.6611 3.34538 82.5364 2.9954C82.4324 2.64542 82.2557 2.33662 82.0062 2.06899C81.7567 1.78077 81.4449 1.55431 81.0707 1.38962C80.6964 1.20434 80.2494 1.11169 79.7297 1.11169C79.1891 1.11169 78.7006 1.21463 78.264 1.4205C77.8482 1.60578 77.4947 1.87341 77.2037 2.22339C76.9334 2.55278 76.7255 2.94393 76.58 3.39684C76.4344 3.84976 76.3617 4.33355 76.3617 4.84823C76.3617 5.8364 76.6008 6.629 77.0789 7.22602C77.5779 7.82304 78.1912 8.32742 78.9189 8.73916C79.6465 9.1509 80.4366 9.54205 81.289 9.91261C82.1622 10.2832 82.9626 10.7464 83.6902 11.3022C84.4179 11.8375 85.0208 12.5272 85.499 13.3712C85.9979 14.1947 86.2474 15.2961 86.2474 16.6754C86.2474 17.9106 86.0395 18.9709 85.6237 19.8561C85.2079 20.7208 84.657 21.4207 83.9709 21.956C83.3056 22.4912 82.5364 22.8824 81.6632 23.1294C80.79 23.3765 79.896 23.5 78.9812 23.5C78.1704 23.5 77.37 23.4074 76.58 23.2221C75.7899 23.0368 75.0831 22.7486 74.4594 22.3574C73.8357 21.9457 73.3263 21.431 72.9313 20.8134C72.5571 20.1752 72.37 19.4135 72.37 18.5283C72.37 18.0136 72.4427 17.4886 72.5883 16.9534C72.7338 16.4181 72.9417 15.9343 73.212 15.502C73.503 15.0696 73.8565 14.7197 74.2723 14.452C74.7089 14.1638 75.2078 14.0197 75.7692 14.0197C76.2265 14.0197 76.6112 14.1432 76.923 14.3903C77.2557 14.6373 77.5467 15.1005 77.7962 15.7799C77.2972 15.8005 76.8814 15.9034 76.5488 16.0887C76.2369 16.274 75.9875 16.5004 75.8003 16.7681C75.6132 17.0357 75.4781 17.3239 75.3949 17.6327C75.3326 17.9415 75.3014 18.2297 75.3014 18.4974C75.3014 19.0532 75.4261 19.537 75.6756 19.9488C75.9251 20.3605 76.2369 20.7105 76.6112 20.9987C77.0062 21.2663 77.422 21.4722 77.8586 21.6163C78.316 21.7398 78.7526 21.8016 79.1684 21.8016C80.1247 21.8016 80.9147 21.4413 81.5384 20.7208C82.1621 20.0002 82.474 18.9606 82.474 17.6018C82.474 16.449 82.2453 15.5431 81.7879 14.8844C81.3513 14.205 80.79 13.6389 80.1039 13.1859C79.4178 12.733 78.6798 12.3419 77.8898 12.0125C77.1205 11.6831 76.3929 11.2919 75.7068 10.839C75.0207 10.3861 74.449 9.80968 73.9916 9.10972C73.555 8.38918 73.3367 7.43189 73.3367 6.23784C73.3367 5.2085 73.5134 4.30267 73.8669 3.52037C74.2203 2.73806 74.6777 2.08957 75.239 1.5749C75.8211 1.03964 76.4864 0.648488 77.2349 0.401444C78.0041 0.133815 78.7941 0 79.605 0C79.9584 0 80.4366 0.0411734 81.0395 0.12352C81.6632 0.205868 82.2661 0.391151 82.8482 0.679368C83.4511 0.967585 83.9605 1.39991 84.3763 1.97635C84.8129 2.53219 85.0312 3.28362 85.0312 4.23062Z"
              fill="black" />
            <path
              d="M93.8306 7.53482C94.6414 7.53482 95.3379 7.65834 95.92 7.90539C96.5021 8.15243 96.9803 8.50241 97.3545 8.95532C97.7288 9.38765 98.0198 9.90232 98.2277 10.4993C98.4564 11.0964 98.6227 11.7346 98.7267 12.4139H98.9138C99.787 12.4139 100.587 12.2389 101.315 11.889C102.043 11.539 102.666 11.0964 103.186 10.5611L103.654 11.3949C103.238 12.0537 102.573 12.5992 101.658 13.0315C100.764 13.4639 99.839 13.7624 98.8826 13.9271C98.8826 14.1329 98.8826 14.3388 98.8826 14.5447C98.9034 14.7505 98.9138 14.9667 98.9138 15.1932C98.9138 17.7254 98.446 19.712 97.5105 21.1531C96.5749 22.5942 95.2651 23.3147 93.5811 23.3147C92.895 23.3147 92.1985 23.1912 91.4917 22.9442C90.8056 22.6971 90.1819 22.2854 89.6206 21.7089C89.0592 21.1325 88.6018 20.3914 88.2484 19.4855C87.9158 18.5797 87.7494 17.4577 87.7494 16.1196C87.7494 15.2138 87.843 14.2565 88.0301 13.2477C88.238 12.2389 88.5707 11.3125 89.028 10.4685C89.5062 9.6244 90.1299 8.92444 90.8992 8.36859C91.6892 7.81275 92.6663 7.53482 93.8306 7.53482ZM94.1424 20.9678C95.2443 20.9678 96.0551 20.4325 96.5749 19.362C97.0947 18.2709 97.3545 16.7372 97.3545 14.7608C97.3545 14.6373 97.3545 14.5138 97.3545 14.3903C97.3545 14.2668 97.3441 14.1432 97.3233 14.0197C96.7204 13.9785 96.2838 13.8447 96.0136 13.6183C95.7641 13.3918 95.6393 13.011 95.6393 12.4757C95.6393 12.0022 95.7433 11.6728 95.9512 11.4875C96.1591 11.2816 96.4709 11.1684 96.8867 11.1478C96.6373 10.4273 96.315 9.9332 95.92 9.66557C95.5458 9.37735 95.1196 9.23325 94.6414 9.23325C93.9969 9.23325 93.446 9.44941 92.9886 9.88173C92.552 10.2935 92.1882 10.8287 91.8971 11.4875C91.6268 12.1463 91.4293 12.8771 91.3046 13.68C91.1798 14.4623 91.1175 15.2343 91.1175 15.9961C91.1175 17.0048 91.211 17.8283 91.3981 18.4665C91.5852 19.1047 91.8243 19.6091 92.1154 19.9796C92.4064 20.3502 92.7287 20.6075 93.0821 20.7516C93.4356 20.8958 93.789 20.9678 94.1424 20.9678Z"
              fill="black" />
            <path
              d="M108.268 12.4139C108.434 12.2698 108.559 12.0434 108.642 11.7346C108.746 11.4052 108.798 11.0964 108.798 10.8081C108.798 10.3346 108.642 9.9435 108.33 9.63469C108.039 9.32589 107.623 9.17148 107.083 9.17148C106.521 9.17148 106.054 9.37735 105.679 9.78909C105.305 10.2008 105.004 10.7258 104.775 11.364C104.546 11.9816 104.38 12.6816 104.276 13.4639C104.193 14.2256 104.151 14.977 104.151 15.7181C104.151 16.8092 104.245 17.6945 104.432 18.3739C104.64 19.0532 104.91 19.5885 105.243 19.9796C105.575 20.3502 105.96 20.6075 106.397 20.7516C106.854 20.8958 107.332 20.9678 107.831 20.9678C108.933 20.9678 109.858 20.7002 110.607 20.1649C111.376 19.6091 112.031 18.7547 112.571 17.6018H113.632C113.382 18.3636 113.029 19.0944 112.571 19.7943C112.114 20.4737 111.584 21.081 110.981 21.6163C110.378 22.131 109.723 22.5427 109.016 22.8515C108.309 23.1603 107.571 23.3147 106.802 23.3147C106.074 23.3147 105.357 23.1912 104.65 22.9442C103.943 22.6971 103.309 22.2957 102.748 21.7398C102.187 21.1634 101.729 20.4223 101.376 19.5164C101.022 18.59 100.846 17.4577 100.846 16.1196C100.846 15.2549 100.918 14.3285 101.064 13.3403C101.23 12.3316 101.521 11.4052 101.937 10.5611C102.374 9.69645 102.966 8.97591 103.715 8.39947C104.463 7.82304 105.43 7.53482 106.615 7.53482C107.925 7.53482 108.923 7.85392 109.609 8.49212C110.295 9.10972 110.638 10.0258 110.638 11.2405C110.638 11.7551 110.534 12.1875 110.326 12.5375C110.139 12.8874 109.837 13.0624 109.422 13.0624C108.964 13.0624 108.58 12.8463 108.268 12.4139Z"
              fill="black" />
            <path
              d="M115.698 7.68923V18.1886C115.698 18.3944 115.708 18.6518 115.729 18.9606C115.75 19.2694 115.802 19.5782 115.885 19.887C115.989 20.1752 116.134 20.4325 116.322 20.659C116.509 20.8649 116.769 20.9678 117.101 20.9678C118.12 20.9678 118.868 19.8458 119.347 17.6018H120.5C120.272 18.8988 119.981 19.9282 119.627 20.6899C119.274 21.431 118.9 21.9972 118.505 22.3883C118.11 22.7795 117.704 23.0265 117.288 23.1294C116.872 23.253 116.498 23.3147 116.166 23.3147C115.438 23.3147 114.845 23.1809 114.388 22.9133C113.931 22.6251 113.567 22.2648 113.297 21.8325C113.026 21.4001 112.839 20.9163 112.735 20.3811C112.631 19.8458 112.579 19.3311 112.579 18.8371V7.68923H115.698ZM112.018 3.24244C112.018 2.6866 112.215 2.2028 112.61 1.79106C113.005 1.37932 113.494 1.17346 114.076 1.17346C114.638 1.17346 115.126 1.37932 115.542 1.79106C115.958 2.2028 116.166 2.6866 116.166 3.24244C116.166 3.81888 115.958 4.30267 115.542 4.69382C115.126 5.08498 114.638 5.28055 114.076 5.28055C113.494 5.28055 113.005 5.08498 112.61 4.69382C112.215 4.30267 112.018 3.81888 112.018 3.24244Z"
              fill="black" />
            <path
              d="M130.816 7.68923V18.1886C130.816 18.3944 130.827 18.6518 130.848 18.9606C130.868 19.2694 130.92 19.5782 131.004 19.887C131.107 20.1752 131.253 20.4325 131.44 20.659C131.627 20.8649 131.887 20.9678 132.22 20.9678C133.238 20.9678 133.987 19.8458 134.465 17.6018H135.619C135.39 18.8988 135.099 19.9282 134.746 20.6899C134.392 21.431 134.018 21.9972 133.623 22.3883C133.228 22.7795 132.823 23.0265 132.407 23.1294C131.991 23.253 131.617 23.3147 131.284 23.3147C130.806 23.3147 130.39 23.2324 130.037 23.0677C129.704 22.903 129.413 22.6868 129.164 22.4192C128.935 22.1516 128.748 21.8428 128.602 21.4928C128.457 21.1428 128.342 20.7722 128.259 20.3811C127.947 21.184 127.438 21.8736 126.731 22.4501C126.045 23.0265 125.203 23.3147 124.205 23.3147C123.581 23.3147 122.947 23.1912 122.303 22.9442C121.679 22.6971 121.107 22.2957 120.588 21.7398C120.089 21.1634 119.673 20.4325 119.34 19.5473C119.028 18.6415 118.872 17.5401 118.872 16.2431C118.872 15.2961 118.976 14.3079 119.184 13.2786C119.413 12.2492 119.766 11.3125 120.245 10.4685C120.723 9.6244 121.336 8.92444 122.084 8.36859C122.833 7.81275 123.737 7.53482 124.798 7.53482C125.047 7.53482 125.307 7.5657 125.577 7.62746C125.868 7.66864 126.139 7.75099 126.388 7.87451C126.658 7.99803 126.908 8.17302 127.137 8.39947C127.365 8.60534 127.552 8.86268 127.698 9.17148V7.68923H130.816ZM124.985 20.9678C125.297 20.9678 125.608 20.8855 125.92 20.7208C126.253 20.5355 126.544 20.2987 126.793 20.0105C127.064 19.7017 127.282 19.3414 127.448 18.9297C127.615 18.518 127.698 18.0753 127.698 17.6018V10.5611C127.552 10.2317 127.324 9.9332 127.012 9.66557C126.721 9.37735 126.336 9.23325 125.858 9.23325C125.193 9.23325 124.621 9.4597 124.143 9.91261C123.665 10.3449 123.28 10.9008 122.989 11.5802C122.698 12.2389 122.48 12.9698 122.334 13.7727C122.209 14.555 122.147 15.3064 122.147 16.0269C122.147 17.7974 122.386 19.0635 122.864 19.8252C123.363 20.5869 124.07 20.9678 124.985 20.9678Z"
              fill="black" />
            <path
              d="M137.595 7.68923V18.1886C137.595 18.3944 137.605 18.6518 137.626 18.9606C137.647 19.2694 137.699 19.5782 137.782 19.887C137.886 20.1752 138.031 20.4325 138.218 20.659C138.405 20.8649 138.665 20.9678 138.998 20.9678C140.017 20.9678 140.765 19.8458 141.243 17.6018H142.397C142.168 18.8988 141.877 19.9282 141.524 20.6899C141.17 21.431 140.796 21.9972 140.401 22.3883C140.006 22.7795 139.601 23.0265 139.185 23.1294C138.769 23.253 138.395 23.3147 138.062 23.3147C137.335 23.3147 136.742 23.1809 136.285 22.9133C135.827 22.6251 135.464 22.2648 135.193 21.8325C134.923 21.4001 134.736 20.9163 134.632 20.3811C134.528 19.8458 134.476 19.3311 134.476 18.8371V7.68923H137.595ZM133.915 3.24244C133.915 2.6866 134.112 2.2028 134.507 1.79106C134.902 1.37932 135.391 1.17346 135.973 1.17346C136.534 1.17346 137.023 1.37932 137.439 1.79106C137.854 2.2028 138.062 2.6866 138.062 3.24244C138.062 3.81888 137.854 4.30267 137.439 4.69382C137.023 5.08498 136.534 5.28055 135.973 5.28055C135.391 5.28055 134.902 5.08498 134.507 4.69382C134.112 4.30267 133.915 3.81888 133.915 3.24244Z"
              fill="black" />
            <path
              d="M147.412 6.73193C147.911 8.70828 148.326 10.3244 148.659 11.5802C148.992 12.8154 149.252 13.8653 149.439 14.73C149.647 15.574 149.792 16.3254 149.875 16.9842C149.958 17.643 150 18.3739 150 19.1767C150 19.9385 149.834 20.5869 149.501 21.1222C149.168 21.6369 148.753 22.0589 148.254 22.3883C147.755 22.7177 147.225 22.9544 146.663 23.0986C146.102 23.2427 145.603 23.3147 145.166 23.3147C144.251 23.3147 143.493 23.1706 142.89 22.8824C142.308 22.5942 141.84 22.2339 141.486 21.8016C141.133 21.3487 140.883 20.8546 140.738 20.3193C140.592 19.7635 140.52 19.2385 140.52 18.7444C140.52 18.2092 140.624 17.7459 140.832 17.3548C141.06 16.9431 141.33 16.6548 141.642 16.4901C142.183 14.9461 142.713 13.4227 143.233 11.9198C143.753 10.3964 144.096 8.87297 144.262 7.34954L147.412 6.73193ZM146.694 18.8371C146.694 18.1989 146.653 17.6327 146.57 17.1386C146.507 16.6445 146.403 16.099 146.258 15.502C146.112 14.905 145.925 14.1844 145.696 13.3403C145.489 12.4757 145.239 11.3743 144.948 10.0361C144.823 11.189 144.563 12.2904 144.168 13.3403C143.794 14.3903 143.451 15.4711 143.139 16.5828C143.326 16.7063 143.482 16.8813 143.607 17.1078C143.753 17.3136 143.825 17.5915 143.825 17.9415C143.825 18.3327 143.721 18.6312 143.513 18.8371C143.306 19.0429 143.077 19.1459 142.827 19.1459C142.495 19.1459 142.214 19.0018 141.985 18.7135C142.152 19.4341 142.443 20.0002 142.859 20.412C143.274 20.8031 143.825 20.9987 144.511 20.9987C145.177 20.9987 145.707 20.834 146.102 20.5046C146.497 20.1546 146.694 19.5988 146.694 18.8371Z"
              fill="black" />
          </svg>